<?xml version="1.0" encoding="UTF-8"?>
<svg xmlns="http://www.w3.org/2000/svg" viewBox="0 0 38.76 12.34">
  <defs>
    <style>
      .cls-1 {
        fill: #fff;
      }

      .cls-2, .cls-3, .cls-4, .cls-5, .cls-6 {
        stroke-miterlimit: 10;
      }

      .cls-2, .cls-4 {
        stroke-width: .5px;
      }

      .cls-2, .cls-4, .cls-6 {
        stroke: #000;
      }

      .cls-3 {
        stroke: #fff;
      }

      .cls-3, .cls-4, .cls-6 {
        fill: none;
        stroke-linecap: round;
      }

      .cls-7, .cls-5 {
        fill: #00e0a0;
      }

      .cls-5 {
        stroke: #00e0a0;
      }

      .cls-6 {
        stroke-width: .75px;
      }
    </style>
  </defs>
  <g>
    <g>
      <path class="cls-7" d="M15.75,11.25h-1.9l-1.25-4.48v4.48h-1.54V2.85h2.1l1.05,3.83V2.85h1.54V11.25Z"/>
      <path class="cls-1" d="M17.77,4.07h-1.67v-1.22h1.67v1.22Zm0,7.18h-1.67V4.45h1.67v6.8Z"/>
      <path class="cls-1" d="M22.03,7.46h-1.67v-1.67c0-.22-.09-.33-.28-.33s-.29,.11-.29,.33v4.17c0,.23,.1,.35,.29,.35s.28-.12,.28-.35v-1.65h1.67v1.66c0,.92-.64,1.38-1.93,1.38s-1.98-.48-1.98-1.44V5.83c0-.96,.66-1.44,1.98-1.44s1.93,.46,1.93,1.38v1.68Z"/>
      <path class="cls-1" d="M26.31,8.37h-2.24v1.59c0,.23,.1,.35,.29,.35s.28-.12,.28-.35v-1.37h1.67v1.38c0,.92-.65,1.38-1.96,1.38s-1.95-.48-1.95-1.44V5.83c0-.96,.65-1.44,1.95-1.44s1.96,.46,1.96,1.38v2.59Zm-1.67-1.02v-1.56c0-.22-.09-.33-.28-.33s-.29,.11-.29,.33v1.56h.57Z"/>
      <path class="cls-7" d="M30.74,5.78h-1.68v-1.66c0-.14-.08-.21-.25-.21s-.27,.07-.27,.21v5.83c0,.14,.09,.21,.27,.21s.25-.07,.25-.21v-2.07h1.68v2.13c0,.4-.2,.72-.59,.96s-.83,.36-1.32,.36c-1.42,0-2.13-.5-2.13-1.51V4.4c0-1.09,.71-1.63,2.13-1.63,1.27,0,1.91,.5,1.91,1.49v1.52Z"/>
      <path class="cls-1" d="M35.06,11.25h-1.48v-.26c-.12,.24-.48,.36-1.07,.36-.91,0-1.37-.36-1.37-1.07v-1.37c0-.3,.11-.57,.33-.8s.67-.51,1.33-.85c.39-.2,.58-.35,.58-.47v-1.01c0-.22-.1-.33-.29-.33-.22,0-.33,.27-.33,.81,0,.1,0,.24,.02,.43,.02,.19,.02,.34,.02,.43h-1.61v-1.36c0-.92,.66-1.38,1.99-1.38,1.24,0,1.86,.48,1.86,1.44v5.41Zm-1.67-1.27v-1.75c-.38,.09-.57,.27-.57,.52v1.24c0,.21,.1,.31,.3,.31,.18,0,.28-.1,.28-.31Z"/>
      <path class="cls-1" d="M38.76,11.25h-1.05c-.75,0-1.21-.11-1.35-.34s-.22-.66-.22-1.31V5.45h-.74v-1.01h.74v-1.37h1.67v1.37h.9v1.01h-.9v4.14c0,.2,.06,.33,.18,.4s.38,.1,.78,.1v1.15Z"/>
    </g>
    <path class="cls-1" d="M0,2.9H8.5V11.57c0,.42-.34,.77-.77,.77H.77c-.42,0-.77-.34-.77-.77V2.9H0Z"/>
    <path class="cls-1" d="M8.49,2.88v3.72l-.93-1.86-.93-1.86,.93-1.86,.43-.87c.14-.27,.49-.16,.49,.16V2.88h0Z"/>
    <path class="cls-1" d="M0,3.12V1.02c0-.26,.36-.35,.49-.13l.43,.71,.93,1.52-.93,1.52L0,6.16V3.12H0Z"/>
    <circle class="cls-2" cx="2.72" cy="5.68" r=".52"/>
    <circle class="cls-2" cx="5.79" cy="5.68" r=".52"/>
    <path class="cls-3" d="M6.44,11.73c.87,0,1.45,.02,2.31,0,.67-.02,1.02,.03,1.12-.1,.35-.44,.24-1.37-.04-2.04s-.34-.82-.51-1.2c-.26-.57-.06-1.87,1.26-3.06"/>
    <path class="cls-4" d="M4.77,7.61c-.13,.16-.32,.27-.55,.27-.25,0-.47-.13-.59-.33"/>
    <line class="cls-6" x1="4.22" y1="8.26" x2="4.21" y2="8.01"/>
    <circle class="cls-7" cx="7.96" cy="1.54" r=".48"/>
    <path class="cls-5" d="M7.95,1.67l.19,.21,.41,.45s.07,.04,.08,.02l.19-.32,.19-.32s-.02-.05-.06-.06l-.59-.13-.13-.03"/>
    <path class="cls-5" d="M7.99,1.45l-.22-.17-.48-.37s-.08-.02-.08,0l-.13,.35-.13,.35s.03,.05,.07,.05l.6,.02h.13"/>
  </g>
</svg>